<svg data-v-fde0c5aa="" xmlns="http://www.w3.org/2000/svg" viewBox="0 0 300 300" class="iconLeftSlogan"><!----><defs data-v-fde0c5aa=""><!----></defs><rect data-v-fde0c5aa="" fill="transparent" x="0" y="0" width="300px" height="300px" class="logo-background-square"></rect><defs data-v-fde0c5aa=""><!----></defs><g data-v-fde0c5aa="" id="3da00602-8e77-40d6-a822-325585ffca0d" fill="#000000" transform="matrix(3.16546655965949,0,0,3.16546655965949,94.19285897865886,103.26476051477513)"><path d="M2.60 5.47L2.58 5.61C2.73 5.61 2.82 5.61 2.82 5.90C2.82 6.09 2.78 6.41 2.69 6.95L1.19 15.56C1.19 15.57 1.18 15.65 1.18 15.65C1.18 15.79 1.65 15.86 2.11 15.86L2.76 15.86C2.80 15.86 2.89 15.83 2.90 15.78L3.84 11.79L5.59 10.34C5.90 10.10 6.28 9.86 6.57 9.86C6.81 9.86 6.98 10.02 6.98 10.49C6.98 10.79 6.90 11.25 6.71 11.87L6.49 12.60C6.35 13.07 6.28 13.51 6.28 13.91C6.28 15.17 6.92 16.03 7.88 16.03C8.44 16.03 9.16 15.72 9.61 14.85L10.25 13.60L10.13 13.53L9.63 14.51C9.34 15.07 8.85 15.37 8.46 15.37C8.16 15.37 7.94 15.18 7.94 14.79C7.94 14.61 7.98 14.38 8.10 14.11L8.61 12.91C8.90 12.20 9.03 11.57 9.03 11.05C9.03 9.88 8.37 9.20 7.43 9.20C6.83 9.20 6.10 9.48 5.37 10.08L3.97 11.24L4.79 7.78C4.87 7.29 5.02 6.81 5.02 6.41C5.02 5.85 4.74 5.47 3.67 5.47ZM14.50 15.65C13.60 15.65 13.17 15.22 13.17 14.12C13.17 11.81 14.26 9.50 15.70 9.50C16.54 9.50 16.98 10.11 16.98 11.27C16.98 13.78 15.93 15.65 14.50 15.65ZM15.76 9.15C13.13 9.15 11.13 10.58 11.13 13.28C11.13 14.94 12.37 16.00 14.43 16.00C17.00 16.00 19.09 14.36 19.09 11.70C19.09 10.04 17.94 9.15 15.76 9.15ZM22.72 14.72L22.87 14.06L23.20 12.66C23.24 12.50 23.28 12.30 23.31 12.10C23.72 11.06 24.45 9.69 25.72 9.69C26.65 9.69 27.25 10.32 27.25 11.26C27.25 13.88 26.13 15.63 24.44 15.63C23.84 15.63 23.38 15.31 23.11 14.90L23.02 15.29C23.40 15.76 24.06 16.00 24.99 16.00C27.62 16.00 29.37 14.40 29.37 11.89C29.37 10.27 28.22 9.23 26.33 9.23C24.73 9.23 23.91 10.10 23.41 11.05C23.40 10.14 23.11 9.30 22.07 9.30C21.31 9.30 20.84 9.50 20.38 10.38L20.10 10.92L20.22 11.00L20.37 10.71C20.57 10.33 20.89 9.88 21.10 9.88C21.22 9.88 21.30 10.04 21.30 10.43C21.30 10.55 21.27 10.96 21.25 11.12L20.36 16.35C20.17 17.51 20.08 18.09 20.08 18.38C20.08 18.61 20.14 18.66 20.25 18.66L21.85 18.66C21.94 18.14 22.00 17.83 22.15 17.19ZM34.28 13.47C33.76 13.28 33.20 13.15 32.57 13.15C31.38 13.15 30.41 13.82 30.41 14.93C30.41 15.69 31.00 16.17 31.96 16.17C33.37 16.17 34.60 15.55 35.43 14.50C35.99 14.89 37.04 16.00 38.47 16.00C40.67 16.00 43.37 14.76 43.37 12.24C43.37 10.80 42.27 9.82 40.42 9.60L40.42 9.59C42.03 9.17 43.18 8.24 43.18 6.85C43.18 5.52 41.74 4.66 39.43 4.66C39.12 4.66 33.91 4.57 33.59 4.55L33.63 4.97C33.78 4.96 34.17 4.96 34.69 4.96C35.38 4.96 35.60 5.08 35.60 5.51C35.60 5.70 35.56 5.96 35.50 6.31ZM35.67 14.16C36.04 13.61 36.31 12.96 36.45 12.24L37.30 8.41C37.42 7.87 37.95 5.88 38.09 4.98C38.73 5.00 39.22 5.00 39.37 5.00C40.39 5.01 41.13 5.69 41.13 6.75C41.13 8.37 39.77 9.44 38.51 9.45L38.09 9.44C38.01 9.44 37.91 9.55 37.91 9.67C37.91 9.78 37.99 9.84 38.11 9.85C38.68 9.87 39.17 9.91 39.58 9.91C40.66 9.91 41.29 10.70 41.29 11.96C41.29 14.16 40.10 15.52 38.56 15.52C37.15 15.52 36.63 14.72 35.67 14.16ZM34.19 13.83C33.86 15.04 33.02 15.83 32.03 15.83C31.25 15.83 30.76 15.45 30.76 14.85C30.76 13.99 31.54 13.49 32.50 13.49C33.19 13.49 33.72 13.62 34.19 13.83ZM44.66 10.31L44.34 10.92L44.46 11.00L44.65 10.64C44.88 10.19 45.06 10.01 45.19 10.01C45.55 10.01 45.62 10.73 45.62 11.96C45.62 14.87 47.57 16.51 48.64 16.95C47.95 17.65 47.15 18.18 46.36 18.18C44.94 18.18 44.82 17.18 44.82 15.67C44.02 15.67 43.48 16.11 43.48 16.76C43.48 17.90 44.60 18.66 46.27 18.66C47.48 18.66 48.75 17.66 49.81 16.31C51.29 14.42 52.38 11.87 52.38 10.45C52.38 9.62 51.89 9.06 51.17 9.06C50.48 9.06 50.16 9.88 49.98 10.13C50.58 10.38 51.39 11.11 51.39 12.00C51.39 13.01 50.59 14.55 49.53 15.93C48.21 15.40 47.77 13.73 47.77 12.04C47.77 11.61 47.82 11.21 47.82 10.78C47.82 9.79 47.11 9.13 46.05 9.13C45.51 9.13 45.08 9.49 44.66 10.31Z"></path></g><defs data-v-fde0c5aa=""><linearGradient data-v-fde0c5aa="" gradientTransform="rotate(25)" id="9195b757-dbe0-4131-948d-c96165a70b90" x1="0%" y1="0%" x2="100%" y2="0%"><stop data-v-fde0c5aa="" offset="0%" stop-color="#006678" stop-opacity="1"></stop><stop data-v-fde0c5aa="" offset="100%" stop-color="#4FA8FF" stop-opacity="1"></stop></linearGradient></defs><g data-v-fde0c5aa="" id="65b18c6e-ad9c-46fa-a43a-e571b4e8b7a8" stroke="url(#9195b757-dbe0-4131-948d-c96165a70b90)" fill="none" transform="matrix(0.9447358417305264,0,0,0.9447358417305264,15.306254449448762,102.35555443740967)"><path stroke-width="3" stroke-linecap="round" stroke-linejoin="round" stroke-miterlimit="10" d="M44.695 6.306v88.251M55.391 6.306v88.251"></path><path stroke="#000" stroke-width="6" stroke-linecap="round" stroke-linejoin="round" stroke-miterlimit="10" d="M26.143 61.908c.125 4.523 1.959 23.023 23.855 23.023 24.527 0 25.037-16.703 22.895-22.023-2.144-5.32-5.918-7.99-22.625-12.227-16.708-4.237-23.779-7.895-24.119-17.639-.375-10.75 9.086-16.911 24.119-16.987 16.125-.081 22.375 10 23.426 23.023"></path></g><defs data-v-fde0c5aa=""><!----></defs><g data-v-fde0c5aa="" id="bcf39b27-3c81-40b1-967a-483d19b3d3e1" fill="#000000" transform="matrix(0.6970833990091407,0,0,0.6970833990091407,97.44015135937823,169.67647832467196)"><path d="M12.57 4.44C12.75 4.42 12.85 4.34 12.85 4.19L12.85 3.92L11.68 3.92L11.17 3.92C11.10 3.92 11.06 3.92 11.02 3.93C10.98 3.95 10.95 3.99 10.91 4.05L7.01 10.92C6.97 10.99 6.94 11.06 6.92 11.13C6.89 11.20 6.86 11.28 6.83 11.35C6.78 11.20 6.72 11.06 6.65 10.93L2.65 4.05C2.60 3.99 2.58 3.95 2.53 3.93C2.49 3.92 2.45 3.92 2.38 3.92L1.89 3.92L0.70 3.92L0.70 4.19C0.70 4.34 0.80 4.42 0.98 4.44L1.12 4.44C1.19 4.44 1.29 4.45 1.43 4.45C1.57 4.45 1.72 4.47 1.89 4.47L1.89 13.26C1.72 13.26 1.57 13.27 1.43 13.27C1.29 13.27 1.19 13.29 1.12 13.29L0.98 13.29C0.80 13.30 0.70 13.38 0.70 13.54L0.70 13.82L1.89 13.82L2.51 13.82L3.72 13.82L3.72 13.54C3.72 13.38 3.63 13.30 3.44 13.29L3.30 13.29C3.23 13.29 3.12 13.27 2.98 13.27C2.84 13.27 2.67 13.26 2.51 13.26L2.51 5.38C2.51 5.25 2.51 5.12 2.49 4.98L6.50 11.91C6.57 12.04 6.66 12.10 6.78 12.10L6.89 12.10C7.01 12.10 7.10 12.04 7.17 11.91L11.06 4.98C11.05 5.12 11.05 5.25 11.05 5.38L11.05 13.26C10.88 13.26 10.71 13.27 10.57 13.27C10.43 13.27 10.32 13.29 10.25 13.29L10.11 13.29C9.93 13.30 9.83 13.38 9.83 13.54L9.83 13.82L11.05 13.82L11.68 13.82L12.85 13.82L12.85 13.54C12.85 13.38 12.75 13.30 12.57 13.29L12.45 13.29C12.38 13.29 12.26 13.27 12.12 13.27C11.98 13.27 11.84 13.26 11.68 13.26L11.68 4.47C11.84 4.47 11.98 4.45 12.12 4.45C12.26 4.45 12.38 4.44 12.45 4.44ZM30.49 13.22L30.03 13.17L26.25 3.91L25.54 3.91L21.74 13.17L21.29 13.22C21.11 13.23 21.03 13.33 21.03 13.50L21.03 13.82L21.48 13.82L21.77 13.82L22.02 13.82L22.12 13.82L23.44 13.82L23.44 13.50C23.44 13.31 23.32 13.23 23.11 13.22C23.10 13.22 23.07 13.20 23.03 13.20C22.99 13.20 22.93 13.19 22.83 13.19C22.74 13.19 22.61 13.19 22.47 13.17L23.45 10.75L23.52 10.57L28.25 10.57L28.32 10.75L29.30 13.17C29.16 13.19 29.05 13.19 28.95 13.19C28.85 13.19 28.78 13.20 28.74 13.20C28.70 13.20 28.67 13.22 28.66 13.22C28.45 13.23 28.34 13.31 28.34 13.50L28.34 13.82L29.65 13.82L29.75 13.82L30.02 13.82L30.30 13.82L30.76 13.82L30.76 13.50C30.76 13.33 30.67 13.23 30.49 13.22ZM25.69 5.22C25.72 5.14 25.76 5.04 25.79 4.94C25.82 4.84 25.86 4.75 25.89 4.63C25.91 4.75 25.96 4.84 25.98 4.94C26.01 5.04 26.05 5.12 26.08 5.21L28.04 10.04L23.74 10.04ZM47.49 13.29L47.40 13.29L47.22 13.29C47.14 13.29 47.04 13.27 46.94 13.27L42.91 9.06C42.83 8.96 42.76 8.89 42.67 8.83C42.59 8.78 42.50 8.74 42.41 8.71C42.49 8.68 42.56 8.64 42.63 8.58C42.70 8.53 42.78 8.46 42.87 8.36L46.66 4.45L46.93 4.45C47.01 4.45 47.07 4.44 47.11 4.44L47.19 4.44C47.38 4.42 47.47 4.34 47.47 4.19L47.47 3.91L46.49 3.91L46.37 3.91L44.56 3.91L44.56 4.19C44.56 4.34 44.66 4.42 44.84 4.44L45.01 4.44C45.11 4.44 45.23 4.45 45.40 4.45L45.85 4.45L42.18 8.22C42.13 8.27 42.07 8.33 42.03 8.36C41.99 8.39 41.93 8.40 41.87 8.43C41.82 8.44 41.78 8.47 41.71 8.47C41.64 8.48 41.55 8.48 41.47 8.48L40.88 8.48L40.88 4.45C41.05 4.45 41.20 4.44 41.34 4.44C41.48 4.44 41.58 4.42 41.65 4.42L41.79 4.42C41.97 4.41 42.06 4.33 42.06 4.17L42.06 3.91L40.88 3.91L40.17 3.91L38.99 3.91L38.99 4.17C38.99 4.33 39.09 4.41 39.27 4.42L39.40 4.42C39.47 4.42 39.58 4.44 39.72 4.44C39.86 4.44 40.00 4.45 40.17 4.45L40.17 13.26C40.00 13.26 39.86 13.27 39.72 13.27C39.58 13.27 39.47 13.29 39.40 13.29L39.27 13.29C39.09 13.30 38.99 13.38 38.99 13.54L38.99 13.82L40.17 13.82L40.88 13.82L42.06 13.82L42.06 13.54C42.06 13.38 41.97 13.30 41.79 13.29L41.65 13.29C41.58 13.29 41.48 13.27 41.34 13.27C41.20 13.27 41.05 13.26 40.88 13.26L40.88 9.04L41.52 9.04C41.64 9.04 41.73 9.04 41.80 9.06C41.87 9.07 41.93 9.09 41.99 9.11C42.04 9.14 42.10 9.17 42.14 9.21C42.18 9.25 42.22 9.28 42.28 9.34L46.13 13.27C45.99 13.27 45.82 13.29 45.65 13.29L45.25 13.29L45.07 13.29C44.88 13.30 44.79 13.38 44.79 13.54L44.79 13.82L46.66 13.82L46.72 13.82L46.89 13.82L47.47 13.82L47.77 13.82L47.77 13.54C47.77 13.38 47.67 13.30 47.49 13.29ZM57.23 3.92L56.04 3.92L56.04 4.19C56.04 4.34 56.14 4.42 56.32 4.44L56.46 4.44C56.53 4.44 56.63 4.45 56.77 4.45C56.91 4.45 57.06 4.47 57.23 4.47L57.23 13.26C57.06 13.26 56.91 13.27 56.77 13.27C56.63 13.27 56.53 13.29 56.46 13.29L56.32 13.29C56.14 13.30 56.06 13.38 56.06 13.54L56.06 13.82L57.23 13.82L63.17 13.82L63.17 13.22L63.17 11.76L62.82 11.76C62.62 11.76 62.54 11.89 62.52 12.11C62.52 12.14 62.51 12.19 62.51 12.29C62.51 12.39 62.51 12.53 62.50 12.74C62.48 12.95 62.47 13.09 62.47 13.22L57.95 13.22L57.95 9.09L61.89 9.09L61.89 8.51L57.95 8.51L57.95 4.51L62.47 4.51C62.50 5.12 62.52 5.50 62.52 5.63C62.54 5.85 62.62 5.96 62.82 5.96L63.17 5.96L63.17 4.51L63.17 3.92ZM88.49 11.97C88.30 11.97 88.21 12.08 88.20 12.31C88.20 12.32 88.20 12.38 88.19 12.43C88.17 12.49 88.17 12.59 88.16 12.71C88.14 12.84 88.13 13.01 88.12 13.20L84.03 13.20L84.03 4.47C84.20 4.47 84.34 4.45 84.48 4.45C84.62 4.45 84.73 4.44 84.80 4.44L84.92 4.44C85.11 4.42 85.20 4.34 85.20 4.19L85.20 3.92L84.03 3.92L83.31 3.92L82.12 3.92L82.12 4.19C82.12 4.34 82.22 4.42 82.40 4.44L82.54 4.44C82.61 4.44 82.71 4.45 82.85 4.45C82.99 4.45 83.15 4.47 83.31 4.47L83.31 13.26C83.15 13.26 82.99 13.27 82.85 13.27C82.71 13.27 82.61 13.29 82.54 13.29L82.40 13.29C82.22 13.30 82.12 13.38 82.12 13.54L82.12 13.82L83.31 13.82L88.59 13.82L88.72 13.82L88.84 13.82L88.84 13.55L88.84 12.99L88.84 11.97L88.56 11.97ZM100.09 4.44C100.27 4.42 100.35 4.34 100.35 4.19L100.35 3.91L99.18 3.91L98.46 3.91L97.27 3.91L97.27 4.19C97.27 4.34 97.37 4.42 97.55 4.44L97.69 4.44C97.76 4.44 97.86 4.45 98 4.45C98.14 4.45 98.29 4.47 98.46 4.47L98.46 13.26C98.29 13.26 98.14 13.27 98 13.27C97.86 13.27 97.76 13.29 97.69 13.29L97.55 13.29C97.37 13.30 97.27 13.38 97.27 13.54L97.27 13.82L98.46 13.82L99.18 13.82L100.35 13.82L100.35 13.54C100.35 13.38 100.27 13.30 100.09 13.29L99.95 13.29C99.88 13.29 99.78 13.27 99.64 13.27C99.50 13.27 99.34 13.26 99.18 13.26L99.18 4.47C99.34 4.47 99.50 4.45 99.64 4.45C99.78 4.45 99.88 4.44 99.95 4.44ZM115.82 3.92L115.47 3.92L109.89 3.92L108.70 3.92L108.70 4.19C108.70 4.34 108.79 4.42 108.98 4.44L109.12 4.44C109.19 4.44 109.28 4.45 109.42 4.45C109.56 4.45 109.72 4.47 109.89 4.47L109.89 13.26C109.72 13.26 109.56 13.27 109.42 13.27C109.28 13.27 109.19 13.29 109.12 13.29L108.98 13.29C108.79 13.30 108.70 13.38 108.70 13.54L108.70 13.82L109.89 13.82L110.60 13.82L111.78 13.82L111.78 13.54C111.78 13.38 111.69 13.30 111.51 13.29L111.37 13.29C111.30 13.29 111.20 13.27 111.06 13.27C110.92 13.27 110.77 13.26 110.60 13.26L110.60 9.27L114.30 9.27L114.30 8.67L110.60 8.67L110.60 4.51L115.21 4.51C115.23 5.18 115.26 5.56 115.26 5.63C115.28 5.85 115.37 5.96 115.57 5.96L115.91 5.96L115.91 3.92ZM125.22 3.92L124.03 3.92L124.03 4.19C124.03 4.34 124.12 4.42 124.31 4.44L124.45 4.44C124.52 4.44 124.61 4.45 124.75 4.45C124.89 4.45 125.05 4.47 125.22 4.47L125.22 13.26C125.05 13.26 124.89 13.27 124.75 13.27C124.61 13.27 124.52 13.29 124.45 13.29L124.31 13.29C124.12 13.30 124.04 13.38 124.04 13.54L124.04 13.82L125.22 13.82L131.15 13.82L131.15 13.22L131.15 11.76L130.80 11.76C130.61 11.76 130.52 11.89 130.51 12.11C130.51 12.14 130.49 12.19 130.49 12.29C130.49 12.39 130.49 12.53 130.48 12.74C130.47 12.95 130.45 13.09 130.45 13.22L125.93 13.22L125.93 9.09L129.88 9.09L129.88 8.51L125.93 8.51L125.93 4.51L130.45 4.51C130.48 5.12 130.51 5.50 130.51 5.63C130.52 5.85 130.61 5.96 130.80 5.96L131.15 5.96L131.15 4.51L131.15 3.92ZM151.30 3.92L150.11 3.92L150.11 4.19C150.11 4.34 150.21 4.42 150.39 4.44L150.53 4.44C150.60 4.44 150.70 4.45 150.84 4.45C150.98 4.45 151.13 4.47 151.30 4.47L151.30 13.26C151.13 13.26 150.98 13.27 150.84 13.27C150.70 13.27 150.60 13.29 150.53 13.29L150.39 13.29C150.21 13.30 150.12 13.38 150.12 13.54L150.12 13.82L151.30 13.82L157.23 13.82L157.23 13.22L157.23 11.76L156.88 11.76C156.69 11.76 156.60 11.89 156.59 12.11C156.59 12.14 156.58 12.19 156.58 12.29C156.58 12.39 156.58 12.53 156.56 12.74C156.55 12.95 156.53 13.09 156.53 13.22L152.01 13.22L152.01 9.09L155.96 9.09L155.96 8.51L152.01 8.51L152.01 4.51L156.53 4.51C156.56 5.12 156.59 5.50 156.59 5.63C156.60 5.85 156.69 5.96 156.88 5.96L157.23 5.96L157.23 4.51L157.23 3.92ZM175.11 13.22L174.65 13.17L170.87 3.91L170.16 3.91L166.36 13.17L165.91 13.22C165.73 13.23 165.65 13.33 165.65 13.50L165.65 13.82L166.10 13.82L166.39 13.82L166.64 13.82L166.74 13.82L168.06 13.82L168.06 13.50C168.06 13.31 167.94 13.23 167.73 13.22C167.72 13.22 167.69 13.20 167.65 13.20C167.61 13.20 167.55 13.19 167.45 13.19C167.36 13.19 167.23 13.19 167.09 13.17L168.07 10.75L168.14 10.57L172.87 10.57L172.94 10.75L173.92 13.17C173.78 13.19 173.67 13.19 173.57 13.19C173.47 13.19 173.40 13.20 173.36 13.20C173.32 13.20 173.29 13.22 173.28 13.22C173.07 13.23 172.96 13.31 172.96 13.50L172.96 13.82L174.27 13.82L174.37 13.82L174.64 13.82L174.92 13.82L175.38 13.82L175.38 13.50C175.38 13.33 175.29 13.23 175.11 13.22ZM170.31 5.22C170.34 5.14 170.38 5.04 170.41 4.94C170.44 4.84 170.48 4.75 170.51 4.63C170.53 4.75 170.58 4.84 170.60 4.94C170.63 5.04 170.67 5.12 170.70 5.21L172.66 10.04L168.36 10.04ZM189.34 9.91C189.20 9.65 189.00 9.39 188.76 9.21C188.52 9.03 188.27 8.88 187.98 8.75C187.68 8.62 187.36 8.51 187.05 8.41C186.75 8.32 186.44 8.20 186.14 8.11C185.85 7.99 185.58 7.87 185.35 7.71C185.11 7.56 184.93 7.38 184.79 7.15C184.65 6.93 184.56 6.65 184.56 6.31C184.56 6.06 184.62 5.82 184.72 5.59C184.81 5.35 184.95 5.15 185.14 4.97C185.32 4.79 185.54 4.65 185.82 4.55C186.10 4.45 186.41 4.40 186.77 4.40C187.45 4.40 188.06 4.51 188.62 4.75C188.66 5.54 188.69 5.99 188.69 6.06C188.71 6.29 188.79 6.41 188.99 6.41L189.32 6.41L189.32 4.38C188.44 4.00 187.60 3.81 186.77 3.81C186.31 3.81 185.91 3.88 185.54 4.02C185.18 4.16 184.88 4.34 184.65 4.58C184.41 4.82 184.21 5.08 184.09 5.39C183.96 5.70 183.90 6.02 183.90 6.36C183.90 6.78 183.97 7.14 184.11 7.42C184.25 7.70 184.45 7.92 184.69 8.12C184.93 8.32 185.18 8.46 185.47 8.58C185.77 8.71 186.09 8.82 186.40 8.92C186.70 9.02 187.00 9.11 187.31 9.21C187.60 9.31 187.87 9.45 188.10 9.60C188.34 9.76 188.52 9.94 188.66 10.16C188.80 10.39 188.87 10.68 188.87 11.03C188.87 11.35 188.82 11.66 188.71 11.94C188.59 12.22 188.44 12.46 188.23 12.67C188.02 12.88 187.75 13.05 187.45 13.16C187.14 13.29 186.79 13.33 186.40 13.33C185.61 13.33 184.95 13.20 184.42 12.95C184.41 12.75 184.41 12.54 184.39 12.32C184.38 12.10 184.38 11.91 184.37 11.76C184.35 11.61 184.35 11.52 184.35 11.51C184.34 11.28 184.24 11.17 184.04 11.17L183.71 11.17L183.71 13.02L183.71 13.20L183.71 13.38C184.56 13.75 185.44 13.93 186.37 13.93C186.87 13.93 187.32 13.85 187.71 13.69C188.10 13.54 188.44 13.31 188.71 13.05C188.97 12.78 189.20 12.46 189.34 12.10C189.48 11.73 189.55 11.34 189.55 10.92C189.55 10.51 189.48 10.18 189.34 9.91ZM200.62 4.44C200.80 4.42 200.89 4.34 200.89 4.19L200.89 3.91L199.71 3.91L199.00 3.91L197.81 3.91L197.81 4.19C197.81 4.34 197.90 4.42 198.09 4.44L198.23 4.44C198.30 4.44 198.39 4.45 198.53 4.45C198.67 4.45 198.83 4.47 199.00 4.47L199.00 13.26C198.83 13.26 198.67 13.27 198.53 13.27C198.39 13.27 198.30 13.29 198.23 13.29L198.09 13.29C197.90 13.30 197.81 13.38 197.81 13.54L197.81 13.82L199.00 13.82L199.71 13.82L200.89 13.82L200.89 13.54C200.89 13.38 200.80 13.30 200.62 13.29L200.48 13.29C200.41 13.29 200.31 13.27 200.17 13.27C200.03 13.27 199.88 13.26 199.71 13.26L199.71 4.47C199.88 4.47 200.03 4.45 200.17 4.45C200.31 4.45 200.41 4.44 200.48 4.44ZM210.42 3.92L209.23 3.92L209.23 4.19C209.23 4.34 209.33 4.42 209.51 4.44L209.65 4.44C209.72 4.44 209.82 4.45 209.96 4.45C210.10 4.45 210.25 4.47 210.42 4.47L210.42 13.26C210.25 13.26 210.10 13.27 209.96 13.27C209.82 13.27 209.72 13.29 209.65 13.29L209.51 13.29C209.33 13.30 209.24 13.38 209.24 13.54L209.24 13.82L210.42 13.82L216.36 13.82L216.36 13.22L216.36 11.76L216.01 11.76C215.81 11.76 215.73 11.89 215.71 12.11C215.71 12.14 215.70 12.19 215.70 12.29C215.70 12.39 215.70 12.53 215.68 12.74C215.67 12.95 215.66 13.09 215.66 13.22L211.13 13.22L211.13 9.09L215.08 9.09L215.08 8.51L211.13 8.51L211.13 4.51L215.66 4.51C215.68 5.12 215.71 5.50 215.71 5.63C215.73 5.85 215.81 5.96 216.01 5.96L216.36 5.96L216.36 4.51L216.36 3.92ZM232.93 13.29L232.83 13.29L232.65 13.29C232.57 13.29 232.48 13.27 232.40 13.27L229.43 9.53C229.35 9.42 229.24 9.32 229.12 9.25C229.56 9.21 229.95 9.11 230.30 8.96C230.65 8.81 230.93 8.61 231.18 8.37C231.42 8.13 231.62 7.85 231.74 7.55C231.87 7.24 231.94 6.89 231.94 6.51C231.94 5.66 231.66 5.03 231.10 4.58C230.54 4.14 229.68 3.92 228.54 3.92L226.13 3.92L224.95 3.92L224.95 4.19C224.95 4.34 225.04 4.42 225.22 4.44L225.36 4.44C225.43 4.44 225.53 4.45 225.67 4.45C225.81 4.45 225.96 4.47 226.13 4.47L226.13 13.26C225.96 13.26 225.81 13.27 225.67 13.27C225.53 13.27 225.43 13.29 225.36 13.29L225.22 13.29C225.04 13.30 224.94 13.38 224.94 13.54L224.94 13.82L226.13 13.82L226.84 13.82L228.02 13.82L228.02 13.54C228.02 13.38 227.92 13.30 227.74 13.29L227.60 13.29C227.53 13.29 227.43 13.27 227.29 13.27C227.15 13.27 227.01 13.26 226.84 13.26L226.84 9.34L228.02 9.34C228.21 9.34 228.35 9.35 228.44 9.39C228.52 9.44 228.61 9.52 228.69 9.62L231.87 13.64C231.92 13.71 231.97 13.75 232.02 13.78C232.08 13.80 232.15 13.82 232.22 13.82L232.29 13.82L232.83 13.82L233.20 13.82L233.20 13.54C233.20 13.38 233.11 13.30 232.93 13.29ZM228.44 8.81L226.84 8.81L226.84 4.48L228.54 4.48C229.42 4.48 230.09 4.66 230.55 5.00C231.01 5.33 231.24 5.87 231.24 6.57C231.24 6.92 231.18 7.21 231.06 7.49C230.93 7.77 230.73 7.99 230.50 8.19C230.26 8.39 229.96 8.55 229.61 8.65C229.26 8.75 228.87 8.81 228.44 8.81Z"></path></g></svg>